<svg width="133" height="46" viewBox="0 0 133 46" fill="none" xmlns="http://www.w3.org/2000/svg">
<path d="M0 0H133V46H0V0Z" fill="#92E602"/>
<path d="M31.504 21.032C31.312 20.168 30.8907 19.4907 30.24 19C29.6 18.5093 28.8533 18.264 28 18.264C27.2747 18.264 26.6293 18.408 26.064 18.696C25.4987 18.984 25.0453 19.368 24.704 19.848C24.3733 20.328 24.1227 20.8613 23.952 21.448C23.7813 22.024 23.696 22.6373 23.696 23.288C23.696 23.9387 23.7813 24.5573 23.952 25.144C24.1227 25.72 24.3733 26.248 24.704 26.728C25.0453 27.208 25.4987 27.592 26.064 27.88C26.6293 28.168 27.2747 28.312 28 28.312C29.024 28.312 29.8613 27.9653 30.512 27.272C31.1733 26.5787 31.5573 25.704 31.664 24.648H32.752C32.6027 26.0667 32.1067 27.1867 31.264 28.008C30.4213 28.8187 29.3333 29.224 28 29.224C26.848 29.224 25.856 28.9467 25.024 28.392C24.192 27.8267 23.5787 27.1067 23.184 26.232C22.8 25.3467 22.608 24.3653 22.608 23.288C22.608 22.488 22.72 21.736 22.944 21.032C23.1787 20.328 23.5093 19.6987 23.936 19.144C24.3733 18.5893 24.9387 18.152 25.632 17.832C26.336 17.5013 27.1253 17.336 28 17.336C29.152 17.336 30.1653 17.6667 31.04 18.328C31.9253 18.9893 32.4427 19.8907 32.592 21.032H31.504ZM34.4176 17.576H35.5056V22.536H42.2896V17.576H43.3776V29H42.2896V23.464H35.5056V29H34.4176V17.576ZM45.6833 17.576H53.5712V18.504H46.7713V22.632H53.1393V23.56H46.7713V28.072H53.6513V29H45.6833V17.576ZM63.5196 21.032C63.3276 20.168 62.9063 19.4907 62.2556 19C61.6156 18.5093 60.869 18.264 60.0156 18.264C59.2903 18.264 58.645 18.408 58.0796 18.696C57.5143 18.984 57.061 19.368 56.7196 19.848C56.389 20.328 56.1383 20.8613 55.9676 21.448C55.797 22.024 55.7116 22.6373 55.7116 23.288C55.7116 23.9387 55.797 24.5573 55.9676 25.144C56.1383 25.72 56.389 26.248 56.7196 26.728C57.061 27.208 57.5143 27.592 58.0796 27.88C58.645 28.168 59.2903 28.312 60.0156 28.312C61.0396 28.312 61.877 27.9653 62.5276 27.272C63.189 26.5787 63.573 25.704 63.6796 24.648H64.7676C64.6183 26.0667 64.1223 27.1867 63.2796 28.008C62.437 28.8187 61.349 29.224 60.0156 29.224C58.8636 29.224 57.8716 28.9467 57.0396 28.392C56.2076 27.8267 55.5943 27.1067 55.1996 26.232C54.8156 25.3467 54.6236 24.3653 54.6236 23.288C54.6236 22.488 54.7356 21.736 54.9596 21.032C55.1943 20.328 55.525 19.6987 55.9516 19.144C56.389 18.5893 56.9543 18.152 57.6476 17.832C58.3516 17.5013 59.141 17.336 60.0156 17.336C61.1676 17.336 62.181 17.6667 63.0556 18.328C63.941 18.9893 64.4583 19.8907 64.6076 21.032H63.5196ZM66.4333 17.576H67.5213V23.72L74.1613 17.576H75.6333L70.5293 22.296L75.8733 29H74.4653L69.7133 23.048L67.5213 25.08V29H66.4333V17.576ZM77.5443 21.448C77.3736 22.024 77.2883 22.6373 77.2883 23.288C77.2883 23.9387 77.3736 24.5573 77.5443 25.144C77.7149 25.72 77.9656 26.248 78.2963 26.728C78.6376 27.208 79.0909 27.592 79.6562 27.88C80.2216 28.168 80.8669 28.312 81.5923 28.312C82.3176 28.312 82.9629 28.168 83.5283 27.88C84.0936 27.592 84.5416 27.208 84.8723 26.728C85.2029 26.248 85.4536 25.72 85.6243 25.144C85.7949 24.5573 85.8803 23.9387 85.8803 23.288C85.8803 22.6373 85.7949 22.024 85.6243 21.448C85.4536 20.8613 85.2029 20.328 84.8723 19.848C84.5416 19.368 84.0936 18.984 83.5283 18.696C82.9629 18.408 82.3176 18.264 81.5923 18.264C80.8669 18.264 80.2216 18.408 79.6562 18.696C79.0909 18.984 78.6376 19.368 78.2963 19.848C77.9656 20.328 77.7149 20.8613 77.5443 21.448ZM76.2003 23.288C76.2003 22.488 76.3123 21.736 76.5363 21.032C76.7709 20.328 77.1016 19.6987 77.5283 19.144C77.9656 18.5893 78.5309 18.152 79.2243 17.832C79.9283 17.5013 80.7176 17.336 81.5923 17.336C82.7443 17.336 83.7309 17.6187 84.5523 18.184C85.3843 18.7493 85.9923 19.4747 86.3763 20.36C86.7709 21.2347 86.9683 22.2107 86.9683 23.288C86.9683 24.3653 86.7709 25.3467 86.3763 26.232C85.9923 27.1067 85.3843 27.8267 84.5523 28.392C83.7309 28.9467 82.7443 29.224 81.5923 29.224C80.4403 29.224 79.4483 28.9467 78.6163 28.392C77.7843 27.8267 77.1709 27.1067 76.7763 26.232C76.3923 25.3467 76.2003 24.3653 76.2003 23.288ZM88.5556 17.576H89.6436V24.648C89.6436 25.928 89.9263 26.8613 90.4916 27.448C91.057 28.024 91.889 28.312 92.9876 28.312C94.0863 28.312 94.9183 28.024 95.4836 27.448C96.0596 26.8613 96.3476 25.928 96.3476 24.648V17.576H97.4356V24.888C97.4356 26.168 97.0676 27.2133 96.3316 28.024C95.6063 28.824 94.4916 29.224 92.9876 29.224C91.4943 29.224 90.3796 28.824 89.6436 28.024C88.9183 27.2133 88.5556 26.168 88.5556 24.888V17.576ZM98.4047 17.576H107.445V18.504H103.461V29H102.373V18.504H98.4047V17.576Z" fill="black"/>
</svg>
