<svg width="118" height="46" viewBox="0 0 118 46" fill="none" xmlns="http://www.w3.org/2000/svg">
<rect width="118" height="46" fill="#C4C4C4"/>
<path d="M18.96 22.75H22.516C23.1227 22.75 23.6313 22.5727 24.042 22.218C24.462 21.8633 24.672 21.392 24.672 20.804C24.672 20.1787 24.49 19.6933 24.126 19.348C23.762 18.9933 23.2253 18.816 22.516 18.816H18.96V22.75ZM18.008 18.004H22.586C23.4633 18.004 24.1867 18.2233 24.756 18.662C25.3347 19.1007 25.624 19.7493 25.624 20.608C25.624 21.2613 25.456 21.8167 25.12 22.274C24.784 22.7313 24.3033 23.0253 23.678 23.156V23.184C24.294 23.268 24.728 23.5013 24.98 23.884C25.2413 24.2573 25.3907 24.7753 25.428 25.438C25.428 25.466 25.4327 25.62 25.442 25.9C25.4607 26.18 25.4747 26.3853 25.484 26.516C25.5027 26.6467 25.526 26.8287 25.554 27.062C25.582 27.2953 25.624 27.4867 25.68 27.636C25.736 27.7853 25.806 27.9067 25.89 28H24.84C24.784 27.916 24.7373 27.7993 24.7 27.65C24.672 27.5007 24.6487 27.37 24.63 27.258C24.6207 27.1367 24.6113 26.9873 24.602 26.81C24.5927 26.6233 24.5833 26.502 24.574 26.446C24.5553 26.0913 24.532 25.8067 24.504 25.592C24.4853 25.368 24.434 25.1113 24.35 24.822C24.2753 24.5233 24.168 24.2947 24.028 24.136C23.8973 23.968 23.706 23.828 23.454 23.716C23.2113 23.604 22.9173 23.5527 22.572 23.562H18.96V28H18.008V18.004ZM32.3719 23.884C32.3532 23.184 32.1339 22.582 31.7139 22.078C31.2939 21.5647 30.7479 21.308 30.0759 21.308C29.3946 21.308 28.8486 21.56 28.4379 22.064C28.0272 22.5587 27.7799 23.1653 27.6959 23.884H32.3719ZM27.6959 24.626C27.6959 25.3633 27.8966 26.0213 28.2979 26.6C28.7086 27.1787 29.3012 27.468 30.0759 27.468C31.2799 27.468 32.0359 26.852 32.3439 25.62H33.2259C32.8339 27.3373 31.7839 28.196 30.0759 28.196C28.9839 28.196 28.1672 27.8413 27.6259 27.132C27.0846 26.4133 26.8139 25.4987 26.8139 24.388C26.8139 23.716 26.9212 23.1047 27.1359 22.554C27.3506 21.994 27.7099 21.5227 28.2139 21.14C28.7272 20.7573 29.3479 20.566 30.0759 20.566C30.8132 20.566 31.4292 20.7667 31.9239 21.168C32.4279 21.5693 32.7826 22.0687 32.9879 22.666C33.1932 23.2633 33.2819 23.9167 33.2539 24.626H27.6959ZM35.8377 20.776H37.3077V21.518H35.8377V26.39C35.8377 26.7073 35.8843 26.9407 35.9777 27.09C36.071 27.2393 36.2623 27.3233 36.5517 27.342C36.8037 27.342 37.0557 27.328 37.3077 27.3V28.042C37.2237 28.042 37.093 28.0467 36.9157 28.056C36.7383 28.0653 36.6077 28.07 36.5237 28.07C35.9263 28.07 35.511 27.9533 35.2777 27.72C35.0537 27.4867 34.9463 27.0667 34.9557 26.46V21.518H33.6957V20.776H34.9557V18.606H35.8377V20.776ZM44.4322 28H43.6202V26.698H43.5922C43.3682 27.174 43.0322 27.5427 42.5842 27.804C42.1456 28.0653 41.6509 28.196 41.1002 28.196C39.4109 28.196 38.5662 27.286 38.5662 25.466V20.776H39.4482V25.48C39.4669 26.152 39.6209 26.6513 39.9102 26.978C40.2089 27.3047 40.6989 27.468 41.3802 27.468C42.0896 27.468 42.6262 27.188 42.9902 26.628C43.3636 26.0587 43.5502 25.3727 43.5502 24.57V20.776H44.4322V28ZM46.0998 20.776H46.9118V22.47H46.9398C47.1638 21.8727 47.5138 21.42 47.9898 21.112C48.4658 20.7947 49.0258 20.65 49.6698 20.678V21.56C48.8858 21.5227 48.2418 21.756 47.7378 22.26C47.2338 22.7547 46.9818 23.3847 46.9818 24.15V28H46.0998V20.776ZM50.7479 20.776H51.6299V22.022H51.6579C51.8259 21.5833 52.1245 21.2333 52.5539 20.972C52.9832 20.7013 53.4545 20.566 53.9679 20.566C54.9385 20.566 55.6199 20.804 56.0119 21.28C56.4132 21.7467 56.6139 22.4373 56.6139 23.352V28H55.7319V23.492C55.7319 22.036 55.1205 21.308 53.8979 21.308C53.2165 21.308 52.6705 21.5413 52.2599 22.008C51.8585 22.4653 51.6485 23.058 51.6299 23.786V28H50.7479V20.776ZM63.5779 20.776H65.0479V21.518H63.5779V26.39C63.5779 26.7073 63.6246 26.9407 63.7179 27.09C63.8112 27.2393 64.0026 27.3233 64.2919 27.342C64.5439 27.342 64.7959 27.328 65.0479 27.3V28.042C64.9639 28.042 64.8332 28.0467 64.6559 28.056C64.4786 28.0653 64.3479 28.07 64.2639 28.07C63.6666 28.07 63.2512 27.9533 63.0179 27.72C62.7939 27.4867 62.6866 27.0667 62.6959 26.46V21.518H61.4359V20.776H62.6959V18.606H63.5779V20.776ZM71.2345 22.232C70.7865 21.616 70.1658 21.308 69.3725 21.308C68.5791 21.308 67.9585 21.616 67.5105 22.232C67.0625 22.8387 66.8385 23.5573 66.8385 24.388C66.8385 25.2187 67.0625 25.942 67.5105 26.558C67.9585 27.1647 68.5791 27.468 69.3725 27.468C70.1658 27.468 70.7865 27.1647 71.2345 26.558C71.6825 25.942 71.9065 25.2187 71.9065 24.388C71.9065 23.5573 71.6825 22.8387 71.2345 22.232ZM66.8665 21.672C67.4731 20.9347 68.3085 20.566 69.3725 20.566C70.4365 20.566 71.2718 20.9347 71.8785 21.672C72.4851 22.4 72.7885 23.3053 72.7885 24.388C72.7885 25.48 72.4851 26.39 71.8785 27.118C71.2718 27.8367 70.4365 28.196 69.3725 28.196C68.3085 28.196 67.4731 27.8367 66.8665 27.118C66.2598 26.39 65.9565 25.48 65.9565 24.388C65.9565 23.3053 66.2598 22.4 66.8665 21.672ZM83.0923 23.044C82.8403 21.8867 82.1589 21.308 81.0483 21.308C80.2549 21.308 79.6343 21.616 79.1863 22.232C78.7383 22.8387 78.5143 23.5573 78.5143 24.388C78.5143 25.2187 78.7383 25.942 79.1863 26.558C79.6343 27.1647 80.2549 27.468 81.0483 27.468C81.5896 27.468 82.0609 27.272 82.4623 26.88C82.8636 26.488 83.0923 25.998 83.1483 25.41H84.0303C83.9089 26.2873 83.5869 26.9733 83.0643 27.468C82.5416 27.9533 81.8696 28.196 81.0483 28.196C79.9843 28.196 79.1489 27.8367 78.5423 27.118C77.9356 26.39 77.6323 25.48 77.6323 24.388C77.6323 23.3053 77.9356 22.4 78.5423 21.672C79.1489 20.9347 79.9843 20.566 81.0483 20.566C81.8509 20.566 82.5136 20.776 83.0363 21.196C83.5589 21.616 83.8716 22.232 83.9743 23.044H83.0923ZM85.172 22.988C85.228 22.1667 85.5127 21.56 86.026 21.168C86.5393 20.7667 87.23 20.566 88.098 20.566C89.8713 20.566 90.758 21.3407 90.758 22.89V26.726C90.758 27.0807 90.9307 27.258 91.276 27.258C91.388 27.258 91.4813 27.2393 91.556 27.202V27.944C91.3693 27.9813 91.178 28 90.982 28C90.5713 28 90.296 27.8973 90.156 27.692C90.016 27.4773 89.946 27.16 89.946 26.74H89.918C89.5727 27.2533 89.2133 27.6267 88.84 27.86C88.4667 28.084 87.9487 28.196 87.286 28.196C86.5673 28.196 85.984 28.0233 85.536 27.678C85.088 27.3233 84.864 26.796 84.864 26.096C84.864 25.8347 84.9013 25.6013 84.976 25.396C85.0507 25.1813 85.1347 25.004 85.228 24.864C85.3307 24.7147 85.4847 24.584 85.69 24.472C85.9047 24.3507 86.0867 24.262 86.236 24.206C86.3853 24.1407 86.6093 24.08 86.908 24.024C87.216 23.968 87.4493 23.9307 87.608 23.912C87.7667 23.884 88.0233 23.8513 88.378 23.814C88.5367 23.7953 88.658 23.7813 88.742 23.772C89.1527 23.7347 89.442 23.6553 89.61 23.534C89.7873 23.4127 89.876 23.1653 89.876 22.792C89.876 22.2413 89.708 21.8587 89.372 21.644C89.036 21.42 88.574 21.308 87.986 21.308C87.398 21.308 86.9313 21.448 86.586 21.728C86.25 21.9987 86.0727 22.4187 86.054 22.988H85.172ZM89.876 24.052H89.848C89.7733 24.192 89.526 24.2993 89.106 24.374C88.9473 24.402 88.6953 24.444 88.35 24.5C88.0047 24.5467 87.7387 24.5887 87.552 24.626C87.3653 24.654 87.1367 24.71 86.866 24.794C86.6047 24.8687 86.404 24.9527 86.264 25.046C86.1333 25.1393 86.012 25.2747 85.9 25.452C85.7973 25.62 85.746 25.816 85.746 26.04C85.746 26.4693 85.9047 26.8147 86.222 27.076C86.5393 27.3373 86.9173 27.468 87.356 27.468C88.0653 27.468 88.6627 27.2627 89.148 26.852C89.6333 26.432 89.876 25.8813 89.876 25.2V24.052ZM92.5158 20.776H93.3278V22.47H93.3558C93.5798 21.8727 93.9298 21.42 94.4058 21.112C94.8818 20.7947 95.4418 20.65 96.0858 20.678V21.56C95.3018 21.5227 94.6578 21.756 94.1538 22.26C93.6498 22.7547 93.3978 23.3847 93.3978 24.15V28H92.5158V20.776ZM98.3318 20.776H99.8018V21.518H98.3318V26.39C98.3318 26.7073 98.3785 26.9407 98.4718 27.09C98.5651 27.2393 98.7565 27.3233 99.0458 27.342C99.2978 27.342 99.5498 27.328 99.8018 27.3V28.042C99.7178 28.042 99.5871 28.0467 99.4098 28.056C99.2325 28.0653 99.1018 28.07 99.0178 28.07C98.4205 28.07 98.0051 27.9533 97.7718 27.72C97.5478 27.4867 97.4405 27.0667 97.4498 26.46V21.518H96.1898V20.776H97.4498V18.606H98.3318V20.776Z" fill="#6F6F6F"/>
</svg>
