<svg width="154" height="46" viewBox="0 0 154 46" fill="none" xmlns="http://www.w3.org/2000/svg">
<path d="M0 0H154V46H0V0Z" fill="#92E602"/>
<path d="M24.504 21.032C24.312 20.168 23.8907 19.4907 23.24 19C22.6 18.5093 21.8533 18.264 21 18.264C20.2747 18.264 19.6293 18.408 19.064 18.696C18.4987 18.984 18.0453 19.368 17.704 19.848C17.3733 20.328 17.1227 20.8613 16.952 21.448C16.7813 22.024 16.696 22.6373 16.696 23.288C16.696 23.9387 16.7813 24.5573 16.952 25.144C17.1227 25.72 17.3733 26.248 17.704 26.728C18.0453 27.208 18.4987 27.592 19.064 27.88C19.6293 28.168 20.2747 28.312 21 28.312C22.024 28.312 22.8613 27.9653 23.512 27.272C24.1733 26.5787 24.5573 25.704 24.664 24.648H25.752C25.6027 26.0667 25.1067 27.1867 24.264 28.008C23.4213 28.8187 22.3333 29.224 21 29.224C19.848 29.224 18.856 28.9467 18.024 28.392C17.192 27.8267 16.5787 27.1067 16.184 26.232C15.8 25.3467 15.608 24.3653 15.608 23.288C15.608 22.488 15.72 21.736 15.944 21.032C16.1787 20.328 16.5093 19.6987 16.936 19.144C17.3733 18.5893 17.9387 18.152 18.632 17.832C19.336 17.5013 20.1253 17.336 21 17.336C22.152 17.336 23.1653 17.6667 24.04 18.328C24.9253 18.9893 25.4427 19.8907 25.592 21.032H24.504ZM32.8416 22.408C32.3296 21.704 31.6203 21.352 30.7136 21.352C29.807 21.352 29.0976 21.704 28.5856 22.408C28.0736 23.1013 27.8176 23.9227 27.8176 24.872C27.8176 25.8213 28.0736 26.648 28.5856 27.352C29.0976 28.0453 29.807 28.392 30.7136 28.392C31.6203 28.392 32.3296 28.0453 32.8416 27.352C33.3536 26.648 33.6096 25.8213 33.6096 24.872C33.6096 23.9227 33.3536 23.1013 32.8416 22.408ZM27.8496 21.768C28.543 20.9253 29.4976 20.504 30.7136 20.504C31.9296 20.504 32.8843 20.9253 33.5776 21.768C34.271 22.6 34.6176 23.6347 34.6176 24.872C34.6176 26.12 34.271 27.16 33.5776 27.992C32.8843 28.8133 31.9296 29.224 30.7136 29.224C29.4976 29.224 28.543 28.8133 27.8496 27.992C27.1563 27.16 26.8096 26.12 26.8096 24.872C26.8096 23.6347 27.1563 22.6 27.8496 21.768ZM36.1003 20.744H37.1083V22.168H37.1403C37.3323 21.6667 37.6736 21.2667 38.1643 20.968C38.6549 20.6587 39.1936 20.504 39.7803 20.504C40.8896 20.504 41.6683 20.776 42.1163 21.32C42.5749 21.8533 42.8043 22.6427 42.8043 23.688V29H41.7963V23.848C41.7963 22.184 41.0976 21.352 39.7003 21.352C38.9216 21.352 38.2976 21.6187 37.8283 22.152C37.3696 22.6747 37.1296 23.352 37.1083 24.184V29H36.1003V20.744ZM48.87 17.576H49.878V19.192H48.87V17.576ZM45.254 21.592H43.846V20.744H45.254V19.992C45.254 19.2027 45.398 18.6053 45.686 18.2C45.974 17.784 46.4967 17.576 47.254 17.576C47.5313 17.576 47.814 17.5973 48.102 17.64V18.504C47.8033 18.4507 47.558 18.424 47.366 18.424C47.1527 18.424 46.9713 18.456 46.822 18.52C46.6833 18.5733 46.5767 18.6427 46.502 18.728C46.4273 18.8027 46.3687 18.9253 46.326 19.096C46.294 19.256 46.2727 19.3947 46.262 19.512C46.262 19.6187 46.262 19.7893 46.262 20.024V20.744H47.894V21.592H46.262V29H45.254V21.592ZM48.87 20.744H49.878V29H48.87V20.744ZM51.8194 20.744H52.7474V22.68H52.7794C53.0354 21.9973 53.4354 21.48 53.9794 21.128C54.5234 20.7653 55.1634 20.6 55.8994 20.632V21.64C55.0034 21.5973 54.2674 21.864 53.6914 22.44C53.1154 23.0053 52.8274 23.7253 52.8274 24.6V29H51.8194V20.744ZM56.8663 20.744H57.7943V22.136H57.8423C58.4076 21.048 59.3089 20.504 60.5463 20.504C61.1116 20.504 61.6076 20.6427 62.0343 20.92C62.4716 21.1973 62.7649 21.5973 62.9143 22.12C63.1489 21.5973 63.5009 21.1973 63.9703 20.92C64.4503 20.6427 64.9729 20.504 65.5383 20.504C67.3623 20.504 68.2743 21.4693 68.2743 23.4V29H67.2663V23.448C67.2663 22.744 67.1169 22.2213 66.8183 21.88C66.5196 21.528 66.0183 21.352 65.3142 21.352C63.8209 21.352 63.0743 22.344 63.0743 24.328V29H62.0663V23.4C62.0663 22.0347 61.4903 21.352 60.3383 21.352C59.5169 21.352 58.8983 21.6293 58.4823 22.184C58.0769 22.7387 57.8743 23.4747 57.8743 24.392V29H56.8663V20.744ZM75.9275 23.176H79.6715C80.4608 23.176 81.0795 22.9787 81.5275 22.584C81.9862 22.1893 82.2155 21.608 82.2155 20.84C82.2155 20.072 81.9862 19.4907 81.5275 19.096C81.0795 18.7013 80.4608 18.504 79.6715 18.504H75.9275V23.176ZM74.8395 17.576H79.9115C80.9462 17.576 81.7675 17.864 82.3755 18.44C82.9942 19.016 83.3035 19.816 83.3035 20.84C83.3035 21.864 82.9942 22.664 82.3755 23.24C81.7675 23.816 80.9462 24.104 79.9115 24.104H75.9275V29H74.8395V17.576ZM84.6296 23.272C84.6936 22.3333 85.019 21.64 85.6056 21.192C86.1923 20.7333 86.9816 20.504 87.9736 20.504C90.0003 20.504 91.0136 21.3893 91.0136 23.16V27.544C91.0136 27.9493 91.211 28.152 91.6056 28.152C91.7336 28.152 91.8403 28.1307 91.9256 28.088V28.936C91.7123 28.9787 91.4936 29 91.2696 29C90.8003 29 90.4856 28.8827 90.3256 28.648C90.1656 28.4027 90.0856 28.04 90.0856 27.56H90.0536C89.659 28.1467 89.2483 28.5733 88.8216 28.84C88.395 29.096 87.803 29.224 87.0456 29.224C86.2243 29.224 85.5576 29.0267 85.0456 28.632C84.5336 28.2267 84.2776 27.624 84.2776 26.824C84.2776 26.5253 84.3203 26.2587 84.4056 26.024C84.491 25.7787 84.587 25.576 84.6936 25.416C84.811 25.2453 84.987 25.096 85.2216 24.968C85.467 24.8293 85.675 24.728 85.8456 24.664C86.0163 24.5893 86.2723 24.52 86.6136 24.456C86.9656 24.392 87.2323 24.3493 87.4136 24.328C87.595 24.296 87.8883 24.2587 88.2936 24.216C88.475 24.1947 88.6136 24.1787 88.7096 24.168C89.179 24.1253 89.5096 24.0347 89.7016 23.896C89.9043 23.7573 90.0056 23.4747 90.0056 23.048C90.0056 22.4187 89.8136 21.9813 89.4296 21.736C89.0456 21.48 88.5176 21.352 87.8456 21.352C87.1736 21.352 86.6403 21.512 86.2456 21.832C85.8616 22.1413 85.659 22.6213 85.6376 23.272H84.6296ZM90.0056 24.488H89.9736C89.8883 24.648 89.6056 24.7707 89.1256 24.856C88.9443 24.888 88.6563 24.936 88.2616 25C87.867 25.0533 87.563 25.1013 87.3496 25.144C87.1363 25.176 86.875 25.24 86.5656 25.336C86.267 25.4213 86.0376 25.5173 85.8776 25.624C85.7283 25.7307 85.5896 25.8853 85.4616 26.088C85.3443 26.28 85.2856 26.504 85.2856 26.76C85.2856 27.2507 85.467 27.6453 85.8296 27.944C86.1923 28.2427 86.6243 28.392 87.1256 28.392C87.9363 28.392 88.619 28.1573 89.1736 27.688C89.7283 27.208 90.0056 26.5787 90.0056 25.8V24.488ZM92.0945 20.744H93.1665L95.8865 27.784L98.4305 20.744H99.4385L95.8545 30.248C95.5452 30.9733 95.2572 31.4533 94.9905 31.688C94.7238 31.9227 94.2865 32.04 93.6785 32.04C93.2732 32.0187 93.0172 31.992 92.9105 31.96V31.112C93.1772 31.1653 93.4065 31.192 93.5985 31.192C93.8118 31.192 93.9932 31.1653 94.1425 31.112C94.2918 31.0587 94.4198 30.9573 94.5265 30.808C94.6438 30.6693 94.7292 30.5467 94.7825 30.44C94.8358 30.3333 94.9212 30.152 95.0385 29.896L95.3905 28.968L92.0945 20.744ZM100.429 20.744H101.357V22.136H101.405C101.97 21.048 102.871 20.504 104.109 20.504C104.674 20.504 105.17 20.6427 105.597 20.92C106.034 21.1973 106.327 21.5973 106.477 22.12C106.711 21.5973 107.063 21.1973 107.533 20.92C108.013 20.6427 108.535 20.504 109.101 20.504C110.925 20.504 111.837 21.4693 111.837 23.4V29H110.829V23.448C110.829 22.744 110.679 22.2213 110.381 21.88C110.082 21.528 109.581 21.352 108.877 21.352C107.383 21.352 106.637 22.344 106.637 24.328V29H105.629V23.4C105.629 22.0347 105.053 21.352 103.901 21.352C103.079 21.352 102.461 21.6293 102.045 22.184C101.639 22.7387 101.437 23.4747 101.437 24.392V29H100.429V20.744ZM119.693 24.296C119.672 23.496 119.421 22.808 118.941 22.232C118.461 21.6453 117.837 21.352 117.069 21.352C116.29 21.352 115.666 21.64 115.197 22.216C114.728 22.7813 114.445 23.4747 114.349 24.296H119.693ZM114.349 25.144C114.349 25.9867 114.578 26.7387 115.037 27.4C115.506 28.0613 116.184 28.392 117.069 28.392C118.445 28.392 119.309 27.688 119.661 26.28H120.669C120.221 28.2427 119.021 29.224 117.069 29.224C115.821 29.224 114.888 28.8187 114.269 28.008C113.65 27.1867 113.341 26.1413 113.341 24.872C113.341 24.104 113.464 23.4053 113.709 22.776C113.954 22.136 114.365 21.5973 114.941 21.16C115.528 20.7227 116.237 20.504 117.069 20.504C117.912 20.504 118.616 20.7333 119.181 21.192C119.757 21.6507 120.162 22.2213 120.397 22.904C120.632 23.5867 120.733 24.3333 120.701 25.144H114.349ZM122.038 20.744H123.046V22.168H123.078C123.27 21.6667 123.611 21.2667 124.102 20.968C124.592 20.6587 125.131 20.504 125.718 20.504C126.827 20.504 127.606 20.776 128.054 21.32C128.512 21.8533 128.742 22.6427 128.742 23.688V29H127.734V23.848C127.734 22.184 127.035 21.352 125.638 21.352C124.859 21.352 124.235 21.6187 123.766 22.152C123.307 22.6747 123.067 23.352 123.046 24.184V29H122.038V20.744ZM132.248 20.744H133.928V21.592H132.248V27.16C132.248 27.5227 132.301 27.7893 132.408 27.96C132.514 28.1307 132.733 28.2267 133.064 28.248C133.352 28.248 133.64 28.232 133.928 28.2V29.048C133.832 29.048 133.682 29.0533 133.48 29.064C133.277 29.0747 133.128 29.08 133.032 29.08C132.349 29.08 131.874 28.9467 131.608 28.68C131.352 28.4133 131.229 27.9333 131.24 27.24V21.592H129.8V20.744H131.24V18.264H132.248V20.744Z" fill="#6F6F6F"/>
</svg>
