<svg width="183" height="46" viewBox="0 0 183 46" fill="none" xmlns="http://www.w3.org/2000/svg">
<path d="M0 0H183V46H0V0Z" fill="#939393"/>
<path d="M35.504 21.032C35.312 20.168 34.8907 19.4907 34.24 19C33.6 18.5093 32.8533 18.264 32 18.264C31.2747 18.264 30.6293 18.408 30.064 18.696C29.4987 18.984 29.0453 19.368 28.704 19.848C28.3733 20.328 28.1227 20.8613 27.952 21.448C27.7813 22.024 27.696 22.6373 27.696 23.288C27.696 23.9387 27.7813 24.5573 27.952 25.144C28.1227 25.72 28.3733 26.248 28.704 26.728C29.0453 27.208 29.4987 27.592 30.064 27.88C30.6293 28.168 31.2747 28.312 32 28.312C33.024 28.312 33.8613 27.9653 34.512 27.272C35.1733 26.5787 35.5573 25.704 35.664 24.648H36.752C36.6027 26.0667 36.1067 27.1867 35.264 28.008C34.4213 28.8187 33.3333 29.224 32 29.224C30.848 29.224 29.856 28.9467 29.024 28.392C28.192 27.8267 27.5787 27.1067 27.184 26.232C26.8 25.3467 26.608 24.3653 26.608 23.288C26.608 22.488 26.72 21.736 26.944 21.032C27.1787 20.328 27.5093 19.6987 27.936 19.144C28.3733 18.5893 28.9387 18.152 29.632 17.832C30.336 17.5013 31.1253 17.336 32 17.336C33.152 17.336 34.1653 17.6667 35.04 18.328C35.9253 18.9893 36.4427 19.8907 36.592 21.032H35.504ZM43.8416 22.408C43.3296 21.704 42.6203 21.352 41.7136 21.352C40.807 21.352 40.0976 21.704 39.5856 22.408C39.0736 23.1013 38.8176 23.9227 38.8176 24.872C38.8176 25.8213 39.0736 26.648 39.5856 27.352C40.0976 28.0453 40.807 28.392 41.7136 28.392C42.6203 28.392 43.3296 28.0453 43.8416 27.352C44.3536 26.648 44.6096 25.8213 44.6096 24.872C44.6096 23.9227 44.3536 23.1013 43.8416 22.408ZM38.8496 21.768C39.543 20.9253 40.4976 20.504 41.7136 20.504C42.9296 20.504 43.8843 20.9253 44.5776 21.768C45.271 22.6 45.6176 23.6347 45.6176 24.872C45.6176 26.12 45.271 27.16 44.5776 27.992C43.8843 28.8133 42.9296 29.224 41.7136 29.224C40.4976 29.224 39.543 28.8133 38.8496 27.992C38.1563 27.16 37.8096 26.12 37.8096 24.872C37.8096 23.6347 38.1563 22.6 38.8496 21.768ZM47.1003 20.744H48.1083V22.168H48.1403C48.3323 21.6667 48.6736 21.2667 49.1643 20.968C49.6549 20.6587 50.1936 20.504 50.7803 20.504C51.8896 20.504 52.6683 20.776 53.1163 21.32C53.5749 21.8533 53.8043 22.6427 53.8043 23.688V29H52.7963V23.848C52.7963 22.184 52.0976 21.352 50.7003 21.352C49.9216 21.352 49.2976 21.6187 48.8283 22.152C48.3696 22.6747 48.1296 23.352 48.1083 24.184V29H47.1003V20.744ZM57.31 20.744H58.99V21.592H57.31V27.16C57.31 27.5227 57.3633 27.7893 57.47 27.96C57.5767 28.1307 57.7953 28.2267 58.126 28.248C58.414 28.248 58.702 28.232 58.99 28.2V29.048C58.894 29.048 58.7447 29.0533 58.542 29.064C58.3393 29.0747 58.19 29.08 58.094 29.08C57.4113 29.08 56.9367 28.9467 56.67 28.68C56.414 28.4133 56.2913 27.9333 56.302 27.24V21.592H54.862V20.744H56.302V18.264H57.31V20.744ZM60.4604 17.576H61.4684V19.192H60.4604V17.576ZM60.4604 20.744H61.4684V29H60.4604V20.744ZM63.3815 20.744H64.3895V22.168H64.4215C64.6135 21.6667 64.9548 21.2667 65.4455 20.968C65.9362 20.6587 66.4748 20.504 67.0615 20.504C68.1708 20.504 68.9495 20.776 69.3975 21.32C69.8562 21.8533 70.0855 22.6427 70.0855 23.688V29H69.0775V23.848C69.0775 22.184 68.3788 21.352 66.9815 21.352C66.2028 21.352 65.5788 21.6187 65.1095 22.152C64.6508 22.6747 64.4108 23.352 64.3895 24.184V29H63.3815V20.744ZM78.6793 29H77.7513V27.512H77.7193C77.4633 28.056 77.0793 28.4773 76.5673 28.776C76.0659 29.0747 75.5006 29.224 74.8713 29.224C72.9406 29.224 71.9753 28.184 71.9753 26.104V20.744H72.9833V26.12C73.0046 26.888 73.1806 27.4587 73.5113 27.832C73.8526 28.2053 74.4126 28.392 75.1913 28.392C76.0019 28.392 76.6153 28.072 77.0313 27.432C77.4579 26.7813 77.6713 25.9973 77.6713 25.08V20.744H78.6793V29ZM86.521 24.296C86.4997 23.496 86.249 22.808 85.769 22.232C85.289 21.6453 84.665 21.352 83.897 21.352C83.1183 21.352 82.4943 21.64 82.025 22.216C81.5557 22.7813 81.273 23.4747 81.177 24.296H86.521ZM81.177 25.144C81.177 25.9867 81.4063 26.7387 81.865 27.4C82.3343 28.0613 83.0117 28.392 83.897 28.392C85.273 28.392 86.137 27.688 86.489 26.28H87.497C87.049 28.2427 85.849 29.224 83.897 29.224C82.649 29.224 81.7157 28.8187 81.097 28.008C80.4783 27.1867 80.169 26.1413 80.169 24.872C80.169 24.104 80.2917 23.4053 80.537 22.776C80.7823 22.136 81.193 21.5973 81.769 21.16C82.3557 20.7227 83.065 20.504 83.897 20.504C84.7397 20.504 85.4437 20.7333 86.009 21.192C86.585 21.6507 86.9903 22.2213 87.225 22.904C87.4597 23.5867 87.561 24.3333 87.529 25.144H81.177ZM94.039 25.24C93.9963 27.288 95.239 28.312 97.767 28.312C98.2043 28.312 98.6417 28.2427 99.079 28.104C99.527 27.9547 99.9217 27.6933 100.263 27.32C100.615 26.9467 100.791 26.504 100.791 25.992C100.791 24.9893 100.007 24.3013 98.439 23.928L95.895 23.304C95.095 23.0907 94.4657 22.7867 94.007 22.392C93.5483 21.9867 93.319 21.3733 93.319 20.552C93.319 20.232 93.3777 19.9067 93.495 19.576C93.6123 19.2347 93.8043 18.888 94.071 18.536C94.3377 18.184 94.743 17.896 95.287 17.672C95.8417 17.448 96.4977 17.336 97.255 17.336C98.4497 17.336 99.4523 17.6507 100.263 18.28C101.074 18.8987 101.479 19.768 101.479 20.888H100.391C100.348 20.056 100.028 19.4107 99.431 18.952C98.8443 18.4933 98.1243 18.264 97.271 18.264C96.439 18.264 95.751 18.4453 95.207 18.808C94.6737 19.1707 94.407 19.7467 94.407 20.536C94.407 21.4427 94.983 22.024 96.135 22.28L98.919 22.968C99.847 23.2133 100.572 23.5653 101.095 24.024C101.618 24.472 101.879 25.1227 101.879 25.976C101.879 26.1893 101.858 26.408 101.815 26.632C101.783 26.8453 101.676 27.1173 101.495 27.448C101.324 27.7787 101.095 28.0667 100.807 28.312C100.519 28.5573 100.087 28.7707 99.511 28.952C98.9457 29.1333 98.279 29.224 97.511 29.224C96.0817 29.224 94.9457 28.8933 94.103 28.232C93.271 27.5707 92.887 26.5733 92.951 25.24H94.039ZM103.397 17.576H104.405V22.168H104.437C104.629 21.6667 104.97 21.2667 105.461 20.968C105.952 20.6587 106.49 20.504 107.077 20.504C108.186 20.504 108.965 20.776 109.413 21.32C109.872 21.8533 110.101 22.6427 110.101 23.688V29H109.093V23.848C109.093 22.184 108.394 21.352 106.997 21.352C106.218 21.352 105.594 21.6187 105.125 22.152C104.666 22.6747 104.426 23.352 104.405 24.184V29H103.397V17.576ZM117.623 22.408C117.111 21.704 116.402 21.352 115.495 21.352C114.588 21.352 113.879 21.704 113.367 22.408C112.855 23.1013 112.599 23.9227 112.599 24.872C112.599 25.8213 112.855 26.648 113.367 27.352C113.879 28.0453 114.588 28.392 115.495 28.392C116.402 28.392 117.111 28.0453 117.623 27.352C118.135 26.648 118.391 25.8213 118.391 24.872C118.391 23.9227 118.135 23.1013 117.623 22.408ZM112.631 21.768C113.324 20.9253 114.279 20.504 115.495 20.504C116.711 20.504 117.666 20.9253 118.359 21.768C119.052 22.6 119.399 23.6347 119.399 24.872C119.399 26.12 119.052 27.16 118.359 27.992C117.666 28.8133 116.711 29.224 115.495 29.224C114.279 29.224 113.324 28.8133 112.631 27.992C111.938 27.16 111.591 26.12 111.591 24.872C111.591 23.6347 111.938 22.6 112.631 21.768ZM120.898 20.744H121.826V22.312H121.858C122.092 21.7467 122.471 21.304 122.994 20.984C123.516 20.664 124.119 20.504 124.802 20.504C125.996 20.504 126.914 20.92 127.554 21.752C128.194 22.584 128.514 23.624 128.514 24.872C128.514 26.1307 128.194 27.1707 127.554 27.992C126.914 28.8133 125.996 29.224 124.802 29.224C124.162 29.224 123.575 29.0693 123.042 28.76C122.508 28.4507 122.14 28.008 121.938 27.432H121.906V32.04H120.898V20.744ZM127.234 26.552C127.415 26.04 127.506 25.48 127.506 24.872C127.506 24.264 127.415 23.704 127.234 23.192C127.063 22.68 126.764 22.248 126.338 21.896C125.922 21.5333 125.41 21.352 124.802 21.352C122.871 21.352 121.906 22.5253 121.906 24.872C121.906 25.8427 122.14 26.6747 122.61 27.368C123.09 28.0507 123.82 28.392 124.802 28.392C125.41 28.392 125.922 28.216 126.338 27.864C126.764 27.5013 127.063 27.064 127.234 26.552ZM130.085 20.744H131.013V22.312H131.045C131.28 21.7467 131.658 21.304 132.181 20.984C132.704 20.664 133.306 20.504 133.989 20.504C135.184 20.504 136.101 20.92 136.741 21.752C137.381 22.584 137.701 23.624 137.701 24.872C137.701 26.1307 137.381 27.1707 136.741 27.992C136.101 28.8133 135.184 29.224 133.989 29.224C133.349 29.224 132.762 29.0693 132.229 28.76C131.696 28.4507 131.328 28.008 131.125 27.432H131.093V32.04H130.085V20.744ZM136.421 26.552C136.602 26.04 136.693 25.48 136.693 24.872C136.693 24.264 136.602 23.704 136.421 23.192C136.25 22.68 135.952 22.248 135.525 21.896C135.109 21.5333 134.597 21.352 133.989 21.352C132.058 21.352 131.093 22.5253 131.093 24.872C131.093 25.8427 131.328 26.6747 131.797 27.368C132.277 28.0507 133.008 28.392 133.989 28.392C134.597 28.392 135.109 28.216 135.525 27.864C135.952 27.5013 136.25 27.064 136.421 26.552ZM139.289 17.576H140.297V19.192H139.289V17.576ZM139.289 20.744H140.297V29H139.289V20.744ZM142.21 20.744H143.218V22.168H143.25C143.442 21.6667 143.783 21.2667 144.274 20.968C144.764 20.6587 145.303 20.504 145.89 20.504C146.999 20.504 147.778 20.776 148.226 21.32C148.684 21.8533 148.914 22.6427 148.914 23.688V29H147.906V23.848C147.906 22.184 147.207 21.352 145.81 21.352C145.031 21.352 144.407 21.6187 143.938 22.152C143.479 22.6747 143.239 23.352 143.218 24.184V29H142.21V20.744ZM157.795 28.328C157.795 29.608 157.507 30.584 156.931 31.256C156.355 31.9387 155.422 32.28 154.131 32.28C153.225 32.28 152.441 32.0667 151.779 31.64C151.129 31.224 150.771 30.6053 150.707 29.784H151.715C151.811 30.3493 152.083 30.7653 152.531 31.032C152.979 31.2987 153.513 31.432 154.131 31.432C155.902 31.432 156.787 30.3973 156.787 28.328V27.208H156.755C156.521 27.7307 156.174 28.1467 155.715 28.456C155.257 28.7547 154.729 28.904 154.131 28.904C152.873 28.904 151.934 28.5147 151.315 27.736C150.707 26.9573 150.403 25.9333 150.403 24.664C150.403 23.48 150.734 22.4933 151.395 21.704C152.067 20.904 152.979 20.504 154.131 20.504C154.718 20.504 155.251 20.664 155.731 20.984C156.211 21.304 156.553 21.6987 156.755 22.168H156.787V20.744H157.795V28.328ZM154.131 28.056C154.963 28.056 155.614 27.736 156.083 27.096C156.553 26.4453 156.787 25.672 156.787 24.776C156.787 23.8587 156.563 23.0587 156.115 22.376C155.678 21.6933 155.017 21.352 154.131 21.352C153.235 21.352 152.558 21.688 152.099 22.36C151.641 23.0213 151.411 23.8267 151.411 24.776C151.411 25.6827 151.641 26.456 152.099 27.096C152.569 27.736 153.246 28.056 154.131 28.056Z" fill="#383838"/>
</svg>
